# xmcd CD database file
#
# Track frame offsets:
#	150
#	16784
#	40774
#	67636
#	94063
#	120118
#	138743
#	165137
#	186167
#	200442
#	220867
#	241773
#	262329
#	280118
#	303173
#	326112
#
# Disc length: 4799 seconds
#
# Revision: 0
# Processed by: cddbd v1.5.1PL0 Copyright (c) Steve Scherf et al.
# Submitted via: CDex 1.51
#
DISCID=d112bd10
DTITLE=Steely Dan - Best Of Then and Now
DYEAR=1900
DGENRE=Jazz
TTITLE0=Black Friday
TTITLE1=Bodnisattva
TTITLE2=Do It Again
TTITLE3=Haitian Divorce
TTITLE4=My Old School
TTITLE5=Midnight Cruiser
TTITLE6=Babylon Sister
TTITLE7=Kid Charlemagne
TTITLE8=Dirty Work
TTITLE9=Josie
TTITLE10=Reeling In The Years
TTITLE11=Rikki Dont Loose That Number
TTITLE12=Peg
TTITLE13=FM
TTITLE14=Hey Nineteen
TTITLE15=Deacon Blues
EXTD=
EXTT0=
EXTT1=
EXTT2=
EXTT3=
EXTT4=
EXTT5=
EXTT6=
EXTT7=
EXTT8=
EXTT9=
EXTT10=
EXTT11=
EXTT12=
EXTT13=
EXTT14=
EXTT15=
PLAYORDER=
